<svg width="54" height="54" viewBox="0 0 54 54" fill="none" xmlns="http://www.w3.org/2000/svg">
<path d="M27.1843 3.91942C21.7958 3.91288 16.5718 5.77535 12.4028 9.18937C8.23383 12.6034 5.37791 17.3576 4.32188 22.6416C3.26585 27.9257 4.07509 33.4124 6.61166 38.1665C9.14822 42.9207 13.2551 46.648 18.2322 48.713C23.2093 50.7781 28.7486 51.0531 33.9057 49.4911C39.0629 47.9292 43.5188 44.627 46.5137 40.1475C49.5087 35.6679 50.8574 30.2883 50.3299 24.9257C49.8024 19.5631 47.4315 14.5494 43.6211 10.7392C39.263 6.37677 33.3507 3.92372 27.1843 3.91942ZM27.1843 52.6352C21.2899 52.6405 15.576 50.6015 11.0165 46.8657C6.4571 43.1299 3.3343 37.9286 2.18041 32.1481C1.02651 26.3677 1.91293 20.366 4.68859 15.166C7.46424 9.96591 11.9573 5.88936 17.4021 3.63112C22.8468 1.37287 28.9062 1.07271 34.5474 2.78178C40.1887 4.49084 45.0627 8.10337 48.3387 13.0036C51.6147 17.9039 53.0899 23.7886 52.513 29.6548C51.936 35.5209 49.3426 41.0055 45.1747 45.1736C42.813 47.538 40.0087 49.4139 36.9218 50.6941C33.835 51.9744 30.5261 52.634 27.1843 52.6352Z" fill="#1F4B13"/>
<path d="M17.4388 31.0669C18.0075 31.0741 18.5653 30.9102 19.0398 30.5964C19.5181 30.274 19.903 29.8313 20.1558 29.3127C20.4271 28.7347 20.5677 28.104 20.5677 27.4655C20.5677 26.827 20.4271 26.1964 20.1558 25.6184C19.901 25.1032 19.5164 24.6632 19.0398 24.3419C18.5624 24.0346 18.0066 23.8711 17.4388 23.8711C16.871 23.8711 16.3152 24.0346 15.8378 24.3419C15.3572 24.6628 14.9707 25.1059 14.7182 25.6257C14.4469 26.2037 14.3062 26.8343 14.3062 27.4728C14.3062 28.1113 14.4469 28.742 14.7182 29.32C14.9707 29.8398 15.3572 30.2829 15.8378 30.6037C16.3121 30.917 16.8705 31.0785 17.4388 31.0669ZM11.0566 38.2477V21.2493H14.0945L14.1894 23.0728C14.6066 22.4052 15.1913 21.8583 15.8852 21.4864C16.5998 21.0975 17.402 20.8979 18.2156 20.9065C18.9958 20.8999 19.7674 21.0695 20.473 21.4025C21.1694 21.7314 21.7902 22.2008 22.2965 22.781C22.8252 23.3869 23.237 24.0855 23.5109 24.8416C23.8061 25.66 23.9531 26.5244 23.9449 27.3944C23.9526 28.2855 23.802 29.1709 23.5 30.0093C23.2181 30.7827 22.7938 31.4964 22.2491 32.1136C21.7273 32.7112 21.0863 33.1932 20.3673 33.5286C19.6372 33.8669 18.8415 34.04 18.0369 34.0355C17.3117 34.0469 16.5938 33.8896 15.9399 33.576C15.3207 33.2786 14.7808 32.8386 14.3644 32.2923V38.2477H11.0566Z" fill="#1F4B13"/>
<path d="M31.3052 31.067C31.8739 31.0742 32.4317 30.9103 32.9062 30.5965C33.3845 30.2741 33.7694 29.8313 34.0221 29.3128C34.2934 28.7348 34.4341 28.1041 34.4341 27.4656C34.4341 26.8271 34.2934 26.1964 34.0221 25.6184C33.7674 25.1032 33.3827 24.6633 32.9062 24.342C32.4288 24.0347 31.873 23.8712 31.3052 23.8712C30.7374 23.8712 30.1816 24.0347 29.7042 24.342C29.2245 24.6639 28.8383 25.1068 28.5846 25.6257C28.3132 26.2037 28.1726 26.8344 28.1726 27.4729C28.1726 28.1114 28.3132 28.7421 28.5846 29.3201C28.8383 29.8391 29.2245 30.2819 29.7042 30.6038C30.1785 30.9171 30.7369 31.0786 31.3052 31.067ZM30.5028 34.0356C29.7299 34.0399 28.9659 33.8704 28.2673 33.5396C27.5709 33.2107 26.9501 32.7413 26.4438 32.1611C25.9151 31.5566 25.5033 30.8591 25.2294 30.1042C24.6423 28.4266 24.6423 26.5994 25.2294 24.9219C25.5096 24.1485 25.9327 23.4347 26.4766 22.8176C26.9971 22.2232 27.6338 21.7416 28.3475 21.4026C29.0736 21.0641 29.8658 20.891 30.667 20.8957C31.3952 20.8883 32.1158 21.0453 32.7749 21.3552C33.3975 21.6521 33.9411 22.0919 34.3613 22.6389V16.1182H37.6436V33.6818H34.6458L34.5546 31.8584C34.1182 32.5333 33.5174 33.0862 32.8087 33.4651C32.0999 33.844 31.3064 34.0366 30.5028 34.0246V34.0356Z" fill="#1F4B13"/>
<path d="M41.2405 33.7765C40.8716 33.7839 40.5083 33.6851 40.1938 33.492C39.894 33.3036 39.6439 33.046 39.4645 32.7407C39.2805 32.4259 39.1836 32.0678 39.1836 31.7032C39.1836 31.3385 39.2805 30.9805 39.4645 30.6656C39.6439 30.3604 39.894 30.1027 40.1938 29.9143C40.5112 29.7281 40.8725 29.6299 41.2405 29.6299C41.6085 29.6299 41.9698 29.7281 42.2872 29.9143C42.5875 30.102 42.8378 30.3599 43.0166 30.6656C43.2027 30.9797 43.3009 31.3381 43.3009 31.7032C43.3009 32.0683 43.2027 32.4266 43.0166 32.7407C42.8378 33.0465 42.5875 33.3043 42.2872 33.492C41.9728 33.6851 41.6095 33.7839 41.2405 33.7765Z" fill="#1F4B13"/>
</svg>
