<!-- Generated by IcoMoon.io -->
<svg version="1.1" xmlns="http://www.w3.org/2000/svg" width="29" height="32" viewBox="0 0 29 32">
<title>calendar</title>
<path d="M25.6 32h-22.4c-1.767 0-3.2-1.433-3.2-3.2v-22.4c0-1.767 1.433-3.2 3.2-3.2h3.2v-3.2h3.2v3.2h9.6v-3.2h3.2v3.2h3.2c1.767 0 3.2 1.433 3.2 3.2v22.4c0 1.767-1.433 3.2-3.2 3.2zM3.2 12.8v16h22.4v-16h-22.4zM3.2 6.4v3.2h22.4v-3.2h-22.4zM22.4 25.6h-3.2v-3.2h3.2v3.2zM16 25.6h-3.2v-3.2h3.2v3.2zM9.6 25.6h-3.2v-3.2h3.2v3.2zM22.4 19.2h-3.2v-3.2h3.2v3.2zM16 19.2h-3.2v-3.2h3.2v3.2zM9.6 19.2h-3.2v-3.2h3.2v3.2z"></path>
</svg>
