<!-- Generated by IcoMoon.io -->
<svg version="1.1" xmlns="http://www.w3.org/2000/svg" width="32" height="32" viewBox="0 0 32 32">
<title>error</title>
<path d="M15.619 32c-4.043 0.004-7.92-1.601-10.779-4.459s-4.463-6.737-4.459-10.779v-0.305c0.125-6.107 3.882-11.55 9.549-13.831s12.147-0.96 16.469 3.357c4.362 4.358 5.667 10.916 3.307 16.612s-7.921 9.409-14.087 9.406zM15.619 18.91l3.947 3.947 2.149-2.149-3.947-3.947 3.947-3.947-2.149-2.149-3.947 3.947-3.947-3.947-2.149 2.149 3.947 3.947-3.947 3.947 2.149 2.149 3.947-3.947z"></path>
</svg>
