<!-- Generated by IcoMoon.io -->
<svg version="1.1" xmlns="http://www.w3.org/2000/svg" width="32" height="32" viewBox="0 0 32 32">
<title>expand</title>
<path d="M16 32c-8.833-0.010-15.99-7.167-16-16v-0.32c0.176-8.793 7.415-15.795 16.209-15.679s15.845 7.309 15.787 16.103c-0.057 8.794-7.202 15.894-15.996 15.895zM16 3.2c-7.069 0-12.8 5.731-12.8 12.8s5.731 12.8 12.8 12.8c7.069 0 12.8-5.731 12.8-12.8-0.008-7.066-5.734-12.792-12.8-12.8zM13.68 24l-2.262-2.264 5.656-5.656-5.656-5.656 2.262-2.264 7.92 7.92-7.92 7.92z"></path>
</svg>
