<svg width="200" height="54" viewBox="0 0 200 54" fill="none" xmlns="http://www.w3.org/2000/svg">
<g clip-path="url(#clip0_915_14588)">
<path d="M26.231 3.87572C20.6777 3.86918 15.2938 5.73165 10.9973 9.14567C6.70073 12.5597 3.75742 17.3139 2.66908 22.5979C1.58074 27.882 2.41474 33.3687 5.02892 38.1228C7.64309 42.877 11.8756 46.6043 17.005 48.6693C22.1344 50.7344 27.8431 51.0094 33.1581 49.4474C38.4731 47.8855 43.0652 44.5833 46.1518 40.1038C49.2384 35.6242 50.6284 30.2446 50.0848 24.882C49.5412 19.5194 47.0976 14.5057 43.1707 10.6955C38.6792 6.33307 32.5861 3.88002 26.231 3.87572ZM26.231 52.5915C20.1562 52.5968 14.2675 50.5578 9.56857 46.822C4.86963 43.0862 1.65129 37.8848 0.462091 32.1044C-0.72711 26.324 0.186433 20.3223 3.04701 15.1223C5.90758 9.92221 10.5381 5.84566 16.1495 3.58742C21.7608 1.32917 28.0055 1.02901 33.8194 2.73807C39.6333 4.44714 44.6564 8.05967 48.0326 12.9599C51.4088 17.8602 52.9292 23.7449 52.3346 29.6111C51.74 35.4772 49.0672 40.9618 44.7718 45.1299C42.3379 47.4943 39.4477 49.3702 36.2664 50.6504C33.0852 51.9307 29.6751 52.5903 26.231 52.5915Z" fill="#1F4B13"/>
<path d="M16.1885 31.0237C16.7747 31.0309 17.3495 30.867 17.8385 30.5532C18.3315 30.2308 18.7281 29.788 18.9886 29.2695C19.2682 28.6915 19.4132 28.0608 19.4132 27.4223C19.4132 26.7838 19.2682 26.1531 18.9886 25.5752C18.726 25.0599 18.3296 24.62 17.8385 24.2987C17.3465 23.9914 16.7737 23.8279 16.1885 23.8279C15.6033 23.8279 15.0305 23.9914 14.5385 24.2987C14.0432 24.6196 13.6449 25.0627 13.3846 25.5824C13.105 26.1604 12.9601 26.7911 12.9601 27.4296C12.9601 28.0681 13.105 28.6988 13.3846 29.2768C13.6449 29.7965 14.0432 30.2397 14.5385 30.5605C15.0273 30.8738 15.6028 31.0353 16.1885 31.0237ZM9.61108 38.2045V21.2061H12.7419L12.8397 23.0296C13.2697 22.362 13.8722 21.8151 14.5874 21.4432C15.3239 21.0543 16.1506 20.8547 16.9891 20.8633C17.7931 20.8567 18.5884 21.0262 19.3156 21.3593C20.0332 21.6882 20.673 22.1576 21.1948 22.7378C21.7398 23.3437 22.1641 24.0423 22.4464 24.7984C22.7506 25.6168 22.9021 26.4812 22.8937 27.3512C22.9017 28.2423 22.7464 29.1277 22.4352 29.9661C22.1446 30.7395 21.7074 31.4532 21.146 32.0704C20.6082 32.668 19.9476 33.15 19.2066 33.4854C18.4542 33.8237 17.6341 33.9968 16.8049 33.9923C16.0575 34.0037 15.3177 33.8464 14.6437 33.5328C14.0056 33.2354 13.4492 32.7954 13.0201 32.249V38.2045H9.61108Z" fill="#1F4B13"/>
<path d="M30.4774 31.0238C31.0636 31.031 31.6385 30.8671 32.1274 30.5533C32.6204 30.2309 33.0171 29.7881 33.2775 29.2696C33.5571 28.6916 33.7021 28.0609 33.7021 27.4224C33.7021 26.7839 33.5571 26.1532 33.2775 25.5752C33.015 25.06 32.6186 24.6201 32.1274 24.2988C31.6354 23.9914 31.0626 23.828 30.4774 23.828C29.8923 23.828 29.3195 23.9914 28.8274 24.2988C28.3331 24.6207 27.9351 25.0635 27.6736 25.5825C27.394 26.1605 27.249 26.7912 27.249 27.4297C27.249 28.0682 27.394 28.6989 27.6736 29.2769C27.9351 29.7959 28.3331 30.2387 28.8274 30.5606C29.3163 30.8739 29.8917 31.0354 30.4774 31.0238ZM29.6506 33.9924C28.854 33.9967 28.0666 33.8272 27.3466 33.4964C26.6289 33.1675 25.9891 32.6981 25.4673 32.1178C24.9225 31.5133 24.4981 30.8159 24.2157 30.061C23.6107 28.3834 23.6107 26.5562 24.2157 24.8787C24.5045 24.1053 24.9406 23.3915 25.5012 22.7744C26.0376 22.18 26.6938 21.6984 27.4293 21.3594C28.1776 21.0209 28.9941 20.8478 29.8197 20.8524C30.5702 20.8451 31.3128 21.0021 31.9921 21.312C32.6337 21.6089 33.194 22.0487 33.6271 22.5957V16.075H37.0097V33.6386H33.9202L33.8263 31.8151C33.3765 32.49 32.7574 33.043 32.0269 33.4219C31.2965 33.8008 30.4788 33.9934 29.6506 33.9814V33.9924Z" fill="#1F4B13"/>
<path d="M40.7153 33.733C40.3351 33.7404 39.9607 33.6417 39.6366 33.4485C39.3277 33.2602 39.0698 33.0025 38.8849 32.6973C38.6954 32.3824 38.5955 32.0243 38.5955 31.6597C38.5955 31.2951 38.6954 30.937 38.8849 30.6222C39.0698 30.3169 39.3277 30.0593 39.6366 29.8709C39.9637 29.6846 40.3361 29.5864 40.7153 29.5864C41.0946 29.5864 41.4669 29.6846 41.794 29.8709C42.1035 30.0586 42.3615 30.3164 42.5457 30.6222C42.7376 30.9362 42.8388 31.2946 42.8388 31.6597C42.8388 32.0248 42.7376 32.3832 42.5457 32.6973C42.3615 33.003 42.1035 33.2608 41.794 33.4485C41.47 33.6417 41.0955 33.7404 40.7153 33.733Z" fill="#1F4B13"/>
<path d="M188.114 34.1795C188.101 34.7851 188.281 35.3798 188.629 35.8826C189 36.367 189.498 36.7451 190.072 36.9767C190.747 37.2538 191.475 37.3904 192.207 37.3778C193.132 37.3932 194.046 37.1745 194.857 36.7433C195.659 36.3216 196.325 35.6924 196.781 34.9257C197.237 34.1589 197.465 33.2846 197.439 32.3997V31.7725C196.692 31.4871 195.921 31.2639 195.135 31.1051C194.426 30.9329 193.698 30.8436 192.967 30.8389C191.463 30.8389 190.269 31.1391 189.385 31.7397C188.98 32.0113 188.652 32.3768 188.43 32.8029C188.208 33.229 188.1 33.7022 188.114 34.1795ZM191.685 39.6207C190.546 39.6415 189.417 39.4134 188.381 38.9533C187.463 38.5254 186.678 37.8684 186.107 37.0496C185.573 36.2195 185.299 35.2565 185.318 34.2779C185.29 33.2312 185.603 32.2026 186.212 31.3385C186.876 30.4854 187.77 29.8266 188.795 29.4348C190.015 28.9457 191.327 28.7072 192.647 28.7346C193.493 28.7378 194.335 28.827 195.162 29.0008C195.936 29.1584 196.692 29.3943 197.417 29.7047V28.4355C197.438 27.5871 197.236 26.7474 196.83 25.9957C196.493 25.3137 195.954 24.7448 195.282 24.3619C194.577 23.9501 193.766 23.7414 192.944 23.7601C191.951 23.7363 190.971 23.9894 190.121 24.4895C189.333 24.9907 188.72 25.7134 188.366 26.561L185.957 25.7587C186.263 24.8909 186.77 24.1025 187.438 23.4538C188.14 22.7991 188.971 22.2882 189.881 21.9513C190.871 21.5922 191.921 21.4117 192.978 21.4188C194.278 21.3882 195.562 21.6995 196.695 22.3196C197.757 22.8843 198.62 23.7458 199.172 24.7922C199.793 25.9325 200.101 27.2084 200.066 28.4975V39.1174H197.699L197.526 36.4442C197.01 37.417 196.208 38.2192 195.222 38.7491C194.147 39.3485 192.924 39.65 191.685 39.6207ZM178.617 39.1211V21.8893H181.368V39.1211H178.617ZM181.913 16.8565C181.913 17.1881 181.817 17.513 181.635 17.7938C181.467 18.0692 181.231 18.2989 180.947 18.4611C180.665 18.6195 180.344 18.7002 180.018 18.6945C179.682 18.6973 179.351 18.617 179.056 18.4611C178.782 18.2857 178.547 18.0588 178.365 17.7938C178.206 17.5053 178.124 17.1834 178.124 16.8565C178.121 16.5409 178.204 16.23 178.365 15.9557C178.534 15.6809 178.772 15.4515 179.056 15.2883C179.344 15.1126 179.678 15.0202 180.018 15.0221C180.349 15.0172 180.672 15.11 180.947 15.2883C181.229 15.4517 181.465 15.6805 181.634 15.9542C181.802 16.2279 181.898 16.5379 181.913 16.8565ZM171.235 39.6316C170.264 39.6566 169.304 39.438 168.446 38.9971C167.659 38.5659 167.024 37.9154 166.623 37.1298C166.184 36.1856 165.972 35.1567 166.003 34.1211V24.1504H162.733V21.8893H166.003V16.1271H168.758V21.8893H174.332V24.1504H168.758V33.9971C168.708 34.8452 168.937 35.6867 169.412 36.4004C169.664 36.6866 169.983 36.9113 170.341 37.0564C170.7 37.2014 171.088 37.2628 171.475 37.2356C171.965 37.2352 172.452 37.1677 172.922 37.035C173.395 36.8924 173.846 36.6901 174.264 36.4333L175.091 38.5047C174.575 38.8553 174.005 39.126 173.403 39.3071C172.698 39.5336 171.958 39.6397 171.216 39.6207L171.235 39.6316ZM146.075 39.132V14.3438H148.826V29.1029L157.223 21.8893H160.771L151.664 29.6208L161.575 39.1393H157.791L148.808 30.3246V39.1393L146.075 39.132ZM138.513 39.132V21.8893H141.264V39.1211L138.513 39.132ZM141.76 16.8565C141.762 17.1878 141.667 17.5127 141.486 17.7938C141.317 18.0676 141.08 18.2968 140.798 18.4611C140.516 18.619 140.195 18.6996 139.87 18.6945C139.533 18.697 139.201 18.6167 138.904 18.4611C138.632 18.2846 138.398 18.0578 138.216 17.7938C138.058 17.5053 137.975 17.1834 137.976 16.8565C137.972 16.5409 138.055 16.23 138.216 15.9557C138.386 15.6819 138.622 15.4527 138.904 15.2883C139.194 15.1128 139.529 15.0205 139.87 15.0221C140.2 15.0176 140.524 15.1105 140.798 15.2883C141.09 15.4403 141.329 15.6724 141.486 15.9557C141.669 16.2221 141.765 16.5362 141.76 16.8565ZM124.997 37.1955C125.818 37.206 126.63 37.0351 127.373 36.6958C128.089 36.3685 128.729 35.9018 129.252 35.3246C129.81 34.7078 130.243 33.9937 130.526 33.2203C130.832 32.3493 130.983 31.4343 130.974 30.5143C130.985 29.606 130.833 28.7028 130.526 27.8447C130.253 27.0666 129.82 26.3506 129.252 25.7404C128.737 25.1471 128.096 24.6682 127.373 24.3364C126.63 23.9971 125.818 23.8263 124.997 23.8367C124.166 23.8289 123.344 23.9995 122.588 24.3364C121.872 24.6792 121.234 25.1564 120.709 25.7404C120.157 26.3562 119.736 27.0712 119.469 27.8447C119.162 28.7028 119.01 29.606 119.021 30.5143C119.012 31.4343 119.163 32.3493 119.469 33.2203C119.746 33.9893 120.167 34.7025 120.709 35.3246C121.241 35.8925 121.878 36.3577 122.588 36.6958C123.344 37.0289 124.167 37.1958 124.997 37.1845V37.1955ZM124.516 39.6316C123.39 39.6403 122.274 39.4127 121.246 38.9642C120.245 38.495 119.351 37.8366 118.615 37.0277C117.846 36.1831 117.24 35.2108 116.826 34.1576C116 31.8199 116 29.2816 116.826 26.9439C117.232 25.8728 117.839 24.8836 118.615 24.0264C119.382 23.2127 120.307 22.5546 121.337 22.0899C122.382 21.6197 123.522 21.3806 124.674 21.3896C125.95 21.3701 127.209 21.681 128.32 22.2904C129.423 22.8889 130.334 23.7726 130.951 24.8433V14.3438H133.706V39.1211H131.229L131.09 35.8388C130.47 36.9962 129.53 37.9626 128.374 38.6289C127.219 39.2952 125.894 39.635 124.55 39.6098L124.516 39.6316ZM104.825 23.6909C103.918 23.6837 103.026 23.9156 102.243 24.3619C101.462 24.833 100.802 25.4718 100.315 26.2291C99.7914 27.0653 99.4523 27.998 99.3192 28.968H110.091C110.025 28.0029 109.731 27.0656 109.23 26.2291C108.784 25.4648 108.145 24.8225 107.374 24.3619C106.605 23.9132 105.723 23.6809 104.825 23.6909ZM105.273 39.6207C104.035 39.6337 102.807 39.4068 101.661 38.9533C100.6 38.5207 99.6394 37.8843 98.8382 37.0824C98.0227 36.2554 97.384 35.2799 96.9589 34.2123C96.5116 33.0371 96.29 31.7924 96.3049 30.5398C96.2898 29.3114 96.4998 28.0901 96.9251 26.933C97.3311 25.8618 97.9376 24.8727 98.7141 24.0154C99.4757 23.205 100.402 22.5568 101.435 22.1117C102.964 21.4298 104.674 21.2274 106.328 21.5326C107.981 21.8379 109.495 22.6356 110.659 23.8149C111.406 24.5945 111.98 25.5158 112.343 26.5209C112.764 27.6095 112.974 28.7643 112.963 29.9271V31.0212H99.1802C99.2418 32.1635 99.5463 33.281 100.075 34.3035C100.56 35.2022 101.286 35.9579 102.176 36.4916C103.093 37.0142 104.142 37.2793 105.205 37.2575C106.223 37.2822 107.23 37.0523 108.129 36.5901C109.012 36.0919 109.757 35.3921 110.298 34.5514L112.639 35.5872C112.194 36.4228 111.585 37.166 110.847 37.7753C110.096 38.3844 109.232 38.8486 108.302 39.1429C107.329 39.4749 106.304 39.6367 105.273 39.6207ZM84.9429 39.1211V21.8893H87.4235L87.5927 25.0949C87.9781 24.0905 88.6606 23.2189 89.5546 22.5895C90.443 21.9616 91.519 21.6337 92.6178 21.6559C92.965 21.6515 93.3117 21.6845 93.6514 21.7543C93.9337 21.7917 94.211 21.859 94.4783 21.9549L94.1325 24.5078C93.8776 24.4202 93.6125 24.3638 93.3432 24.34C93.0698 24.2966 92.7933 24.2746 92.5163 24.2744C91.6141 24.2573 90.7271 24.501 89.968 24.9746C89.226 25.4788 88.643 26.1733 88.2842 26.9804C87.8721 27.9306 87.6723 28.9548 87.6979 29.9855V39.1356L84.9429 39.1211ZM68.4543 17.9141V27.5347C69.0068 27.6223 69.5818 27.6879 70.1757 27.7317C70.7695 27.7754 71.3596 27.801 71.8632 27.801C73.9054 27.801 75.489 27.3779 76.614 26.5318C77.7391 25.6857 78.3003 24.4616 78.2978 22.8594C78.3242 21.9302 78.0736 21.0134 77.5762 20.219C77.0745 19.468 76.3572 18.8759 75.5128 18.5159C74.4917 18.0902 73.3876 17.8849 72.2767 17.9141H68.4543ZM65.564 39.1211V15.3977H72.3105C73.954 15.3559 75.587 15.6634 77.0951 16.2985C78.3701 16.8344 79.4492 17.7303 80.1921 18.8696C80.9313 20.0822 81.3014 21.473 81.2596 22.8812C81.2963 24.2738 80.9037 25.6453 80.132 26.8199C79.3336 27.9638 78.2091 28.8572 76.8959 29.391C75.3268 30.0256 73.6379 30.3337 71.9384 30.2955C71.4348 30.2955 70.8823 30.2699 70.2884 30.2262C69.6946 30.1824 69.1045 30.1168 68.4618 30.0256V39.1101L65.564 39.1211Z" fill="#1F4B13"/>
</g>
<defs>
<clipPath id="clip0_915_14588">
<rect width="200" height="54" fill="white"/>
</clipPath>
</defs>
</svg>
