<!-- Generated by IcoMoon.io -->
<svg version="1.1" xmlns="http://www.w3.org/2000/svg" width="32" height="32" viewBox="0 0 32 32">
<title>inventory</title>
<path d="M16.668 31.945c-0.894 0.003-1.753-0.353-2.383-0.987l-13.194-13.196c-0.696-0.694-1.053-1.659-0.977-2.639l0.842-11.059c0.12-1.663 1.445-2.985 3.109-3.101l11.059-0.842c0.086-0.019 0.173-0.019 0.259-0.019 0.892 0.002 1.748 0.357 2.38 0.987l13.196 13.194c0.632 0.632 0.987 1.489 0.987 2.382s-0.355 1.751-0.987 2.382l-11.909 11.909c-0.63 0.634-1.488 0.989-2.382 0.987zM15.381 3.472l-11.067 0.842-0.842 11.067 13.196 13.196 11.907-11.907-13.194-13.197zM9.522 12.89c-1.607 0-2.99-1.135-3.304-2.711s0.529-3.154 2.014-3.77c1.485-0.615 3.197-0.096 4.090 1.24s0.718 3.117-0.418 4.253c-0.63 0.634-1.488 0.989-2.381 0.987z"></path>
</svg>
