<!-- Generated by IcoMoon.io -->
<svg version="1.1" xmlns="http://www.w3.org/2000/svg" width="26" height="32" viewBox="0 0 26 32">
<title>notification</title>
<path d="M12.8 32c-1.767 0-3.2-1.433-3.2-3.2h6.4c0 1.767-1.433 3.2-3.2 3.2zM25.6 27.2h-25.6v-3.2l3.2-1.6v-8.8c0-5.539 2.274-9.131 6.4-10.112v-3.488h6.4v3.488c4.126 0.979 6.4 4.57 6.4 10.112v8.8l3.2 1.6v3.2zM12.8 6c-1.953-0.126-3.836 0.748-5 2.32-0.996 1.575-1.485 3.418-1.4 5.28v10.4h12.8v-10.4c0.084-1.862-0.404-3.705-1.4-5.28-1.164-1.572-3.047-2.446-5-2.32z"></path>
</svg>
