<!-- Generated by IcoMoon.io -->
<svg version="1.1" xmlns="http://www.w3.org/2000/svg" width="32" height="32" viewBox="0 0 32 32">
<title>search</title>
<path d="M27.87 30.412l-10.16-10.162c-4.52 3.213-10.748 2.427-14.327-1.808s-3.317-10.507 0.605-14.428c3.92-3.923 10.193-4.187 14.429-0.607s5.023 9.808 1.809 14.328l10.16 10.162-2.516 2.516zM11.529 4.444c-3.371-0.001-6.28 2.366-6.965 5.667s1.042 6.629 4.135 7.969c3.093 1.34 6.703 0.325 8.643-2.432s1.678-6.497-0.628-8.957l1.076 1.067-1.234-1.23c-1.33-1.338-3.141-2.089-5.028-2.084z"></path>
</svg>
