<!-- Generated by IcoMoon.io -->
<svg version="1.1" xmlns="http://www.w3.org/2000/svg" width="32" height="32" viewBox="0 0 32 32">
<title>setting</title>
<path d="M9.6 28.799c-2.92 0.001-5.47-1.973-6.2-4.8h-3.4v-3.2h3.402c0.831-3.22 3.991-5.267 7.269-4.709s5.584 3.533 5.305 6.847c-0.279 3.314-3.050 5.862-6.376 5.863zM9.6 19.199c-1.748 0.002-3.171 1.406-3.196 3.154s1.357 3.192 3.105 3.244c1.747 0.052 3.213-1.308 3.292-3.055v0.64-0.784c0-1.767-1.433-3.2-3.2-3.2zM32 23.999h-14.4v-3.2h14.4v3.2zM17.6 15.999c-2.919 0.001-5.469-1.974-6.198-4.8h-11.402v-3.2h11.402c0.831-3.22 3.991-5.267 7.269-4.71s5.584 3.533 5.305 6.847c-0.279 3.314-3.050 5.862-6.376 5.863zM17.6 6.399c-1.748 0.002-3.171 1.406-3.196 3.154s1.357 3.193 3.105 3.244c1.747 0.052 3.213-1.308 3.292-3.055v0.64-0.784c0-1.767-1.433-3.2-3.2-3.2zM32 11.199h-6.4v-3.2h6.4v3.2z"></path>
</svg>
