<!-- Generated by IcoMoon.io -->
<svg version="1.1" xmlns="http://www.w3.org/2000/svg" width="32" height="32" viewBox="0 0 32 32">
<title>settings</title>
<path d="M18.913 32h-5.824c-0.752 0-1.402-0.523-1.563-1.258l-0.651-3.014c-0.869-0.381-1.692-0.857-2.456-1.419l-2.939 0.936c-0.717 0.229-1.496-0.073-1.872-0.725l-2.918-5.042c-0.372-0.652-0.244-1.474 0.309-1.982l2.28-2.080c-0.104-0.942-0.104-1.893 0-2.835l-2.28-2.075c-0.553-0.508-0.682-1.332-0.309-1.984l2.912-5.045c0.376-0.652 1.155-0.953 1.872-0.725l2.939 0.936c0.39-0.289 0.797-0.556 1.218-0.8 0.404-0.228 0.819-0.434 1.245-0.618l0.653-3.011c0.16-0.734 0.81-1.258 1.562-1.259h5.824c0.752 0.001 1.401 0.525 1.562 1.259l0.659 3.013c0.449 0.198 0.887 0.421 1.31 0.669 0.395 0.229 0.777 0.479 1.144 0.75l2.941-0.936c0.716-0.228 1.495 0.074 1.87 0.725l2.912 5.045c0.372 0.652 0.244 1.474-0.309 1.982l-2.28 2.080c0.104 0.942 0.104 1.893 0 2.835l2.28 2.080c0.552 0.508 0.681 1.33 0.309 1.982l-2.912 5.045c-0.376 0.651-1.154 0.952-1.87 0.725l-2.941-0.936c-0.372 0.274-0.759 0.528-1.158 0.76-0.42 0.243-0.852 0.463-1.296 0.658l-0.659 3.006c-0.161 0.734-0.81 1.257-1.562 1.258zM8.993 22.766l1.312 0.96c0.296 0.218 0.604 0.418 0.923 0.6 0.3 0.174 0.61 0.332 0.926 0.474l1.493 0.654 0.731 3.346h3.248l0.731-3.347 1.493-0.654c0.652-0.287 1.27-0.645 1.845-1.066l1.314-0.96 3.266 1.040 1.624-2.813-2.533-2.309 0.179-1.619c0.079-0.708 0.079-1.423 0-2.131l-0.179-1.619 2.534-2.314-1.626-2.814-3.266 1.040-1.314-0.96c-0.575-0.423-1.193-0.783-1.845-1.074l-1.493-0.654-0.731-3.346h-3.248l-0.734 3.347-1.49 0.653c-0.317 0.139-0.626 0.296-0.926 0.469-0.317 0.181-0.624 0.381-0.918 0.597l-1.314 0.96-3.264-1.040-1.627 2.822 2.533 2.306-0.179 1.621c-0.079 0.708-0.079 1.423 0 2.131l0.179 1.619-2.533 2.309 1.624 2.813 3.264-1.040zM15.994 22.4c-3.535 0-6.4-2.865-6.4-6.4s2.865-6.4 6.4-6.4c3.535 0 6.4 2.865 6.4 6.4-0.004 3.533-2.867 6.396-6.4 6.4zM15.994 12.8c-1.748 0.002-3.171 1.406-3.196 3.154s1.357 3.193 3.105 3.244c1.747 0.052 3.213-1.308 3.292-3.055v0.64-0.784c0-1.767-1.433-3.2-3.2-3.2z"></path>
</svg>
